<?xml version="1.0" encoding="UTF-8"?>
<svg width="595px" height="572px" viewBox="0 0 595 572" version="1.1" xmlns="http://www.w3.org/2000/svg" xmlns:xlink="http://www.w3.org/1999/xlink">
    <!-- Generator: Sketch 49.2 (51160) - http://www.bohemiancoding.com/sketch -->
    <title>header-background</title>
    <desc>Created with Sketch.</desc>
    <defs>
        <radialGradient cx="49.5478511%" cy="41.6529959%" fx="49.5478511%" fy="41.6529959%" r="100%" gradientTransform="translate(0.495479,0.416530),scale(0.957983,1.000000),rotate(90.000000),translate(-0.495479,-0.416530)" id="radialGradient-1">
            <stop stop-color="#5054F0" offset="0%"></stop>
            <stop stop-color="#490EA1" offset="100%"></stop>
        </radialGradient>
        <linearGradient x1="0%" y1="49.7500002%" x2="81.1940104%" y2="49.7500002%" id="linearGradient-2">
            <stop stop-color="#64A9F7" offset="0%"></stop>
            <stop stop-color="#69A0F8" offset="78.2757143%"></stop>
            <stop stop-color="#855AFD" offset="100%"></stop>
        </linearGradient>
        <linearGradient x1="0.25781251%" y1="49.7500002%" x2="80.8584948%" y2="49.7500002%" id="linearGradient-3">
            <stop stop-color="#9FD6FF" offset="0%"></stop>
            <stop stop-color="#A5C9FF" offset="75.3157476%"></stop>
            <stop stop-color="#C476FF" offset="100%"></stop>
        </linearGradient>
    </defs>
    <g id="Header-(Page1)" stroke="none" stroke-width="1" fill="none" fill-rule="evenodd">
        <g id="A4">
            <g id="header-background">
                <path d="M0,0 L595,0 L595,570 C426.301747,570 302.969661,570 225.003743,570 C147.037826,570 72.0365777,570 0,570 L0,0 Z" id="BACKGROUND" fill="url(#radialGradient-1)"></path>
                <path d="" id="Path-4" stroke="#979797"></path>
                <path d="M0,469 C122.636632,484.368653 217.604731,494.774252 284.904297,500.216797 C322.242188,503.236328 341.748377,508.543395 361.5,511.591797 C409.003598,518.92335 426.263742,524.744894 471.964844,521.691406 C515.100351,518.809337 556.11207,502.900134 595,473.963797 L595,570 L0,570 L0,469 Z" id="Path-2" fill="url(#linearGradient-2)"></path>
                <path d="M0,570 L595,570 L595,500.367755 C543.612065,523.578503 501.638107,535.183877 469.078125,535.183877 C420.238152,535.183877 358.564206,515.083193 266.005859,508.347649 C204.300295,503.857286 115.631675,501.197321 0,500.367755 L0,570 Z" id="LAYER_2" fill="url(#linearGradient-3)"></path>
                <path d="M0,527.221363 C108.675525,519.5816 191.569405,515.761719 248.681641,515.761719 C334.349994,515.761719 418.132538,543.380859 466.085937,543.380859 C498.054871,543.380859 541.026225,536.215178 595,521.883815 L595,571 L0,571 L0,527.221363 Z" id="LAYER_1" stroke="#FFFFFF" fill="#FFFFFF"></path>
            </g>
        </g>
    </g>
</svg>