<svg xmlns="http://www.w3.org/2000/svg" version="1.1"><polyline points="296.0,4.0,297.0,12.0,298.5,20.5,302.5,29.0" stroke="black" stroke-width="2" fill="none" />
<polyline points="307.5,16.5,299.5,21.5,294.0,4.5,287.0,15.5,279.0,19.5,270.5,28.0,260.5,34.0,252.5,38.5,244.5,42.5,236.5,46.5,229.0,49.5,221.0,53.5,213.5,60.0,203.0,68.0,194.5,71.5,186.0,73.5,177.0,72.5,169.0,72.5,161.0,77.5,153.0,88.5,145.5,101.5,138.5,106.5,137.0,99.0" stroke="black" stroke-width="2" fill="none" />
<polyline points="129.0,109.0,118.0,117.0,98.0,124.0,78.0,132.0,63.0,140.0,62.5,148.0,61.0,156.0,59.0,164.0,52.5,171.0" stroke="black" stroke-width="2" fill="none" />
<polyline points="53.0,192.0,45.5,195.0" stroke="black" stroke-width="2" fill="none" />
<polyline points="47.0,198.0,55.0,197.0,62.5,196.5" stroke="black" stroke-width="2" fill="none" />
<polyline points="69.0,213.5,77.0,212.5" stroke="black" stroke-width="2" fill="none" />
<polyline points="81.5,234.5,81.5,238.5,87.0,247.0,86.5,256.0,84.5,249.5,92.0,250.5,101.0,246.5" stroke="black" stroke-width="2" fill="none" />
<polyline points="91.0,237.0,98.5,241.5,111.5,244.5,120.0,244.5" stroke="black" stroke-width="2" fill="none" />
<polyline points="104.5,235.5,103.0,227.5" stroke="black" stroke-width="2" fill="none" />
<polyline points="98.5,231.5,100.0,245.5,99.0,253.5,101.0,261.5" stroke="black" stroke-width="2" fill="none" />
<polyline points="91.5,271.5,85.5,279.5,99.0,282.0,107.5,281.5,119.0,277.5" stroke="black" stroke-width="2" fill="none" />
<polyline points="124.0,287.5,132.0,287.5,140.5,289.5,143.0,293.5,145.0,301.5" stroke="black" stroke-width="2" fill="none" />
<polyline points="150.0,295.5,158.0,295.5,164.5,292.0,173.5,286.0,181.5,281.5,189.0,279.5" stroke="black" stroke-width="2" fill="none" />
<polyline points="199.5,282.5,207.5,276.5,212.5,273.0,203.5,281.0,204.0,271.5,207.5,261.5" stroke="black" stroke-width="2" fill="none" />
<polyline points="203.0,261.5,194.5,263.0,184.0,267.0,176.5,272.0,168.5,272.0" stroke="black" stroke-width="2" fill="none" />
<polyline points="163.0,257.0,155.0,265.0,150.0,273.0,157.5,261.0,165.5,257.0,174.0,256.0,182.0,249.0,194.0,242.5,202.0,234.0,210.0,233.0,214.0,227.0,222.0,217.0" stroke="black" stroke-width="2" fill="none" />
<polyline points="222.0,224.0,230.0,224.0,237.5,227.0" stroke="black" stroke-width="2" fill="none" />
<polyline points="234.5,219.5,244.5,229.5,247.0,231.5" stroke="black" stroke-width="2" fill="none" />
<polyline points="247.0,218.0,251.0,215.0,246.5,222.5,244.5,231.5,243.5,240.0,233.5,248.0,226.0,256.5,223.5,265.5,219.5,274.0,214.5,274.0,217.5,278.0,221.0,277.0,221.0,285.0,226.0,275.0,233.5,280.0,246.5,277.5" stroke="black" stroke-width="2" fill="none" />
<polyline points="245.5,263.0,243.0,258.0,251.0,251.0,256.5,243.0,255.5,235.0,256.5,227.0,257.5,219.0,256.0,211.0,259.5,203.0,254.5,194.5,245.5,188.5" stroke="black" stroke-width="2" fill="none" />
<polyline points="241.5,169.5,249.5,174.0,258.5,171.0,266.5,163.0,272.5,166.0,280.5,163.0" stroke="black" stroke-width="2" fill="none" />
<polyline points="291.0,151.5,299.0,154.0,307.0,163.5" stroke="black" stroke-width="2" fill="none" />
<polyline points="306.0,180.0,305.0,168.0,299.0,173.5,300.0,172.5,303.0,164.5,301.5,156.0,293.5,150.0,300.0,144.0,296.0,135.5,284.0,127.0,281.0,118.0,276.0,110.0,271.0,102.0,267.0,94.0,268.5,88.0,263.5,80.5,258.0,72.5,253.5,64.5,245.0,56.5,241.0,56.5,238.5,53.5,230.5,56.0,223.0,57.0" stroke="black" stroke-width="2" fill="none" />
<polyline points="216.5,60.5,218.0,69.0,216.5,77.0,214.5,85.0,210.0,93.0,207.5,101.0,201.0,109.0,202.5,113.0,194.5,121.0,186.5,125.5,187.0,133.0,191.0,141.0,192.0,149.5" stroke="black" stroke-width="2" fill="none" />
<polyline points="206.0,142.5,214.0,140.0,206.0,143.5,205.0,151.5,207.0,159.5,206.0,170.5,208.0,178.5" stroke="black" stroke-width="2" fill="none" />
<polyline points="200.0,177.5,209.0,185.5,213.5,193.5,213.5,201.5,216.5,201.5,221.5,203.5,221.5,212.5,210.5,217.5,203.5,232.5,195.0,240.5,184.0,247.5,173.0,255.5,175.5,260.5,166.5,268.5,169.0,266.0,177.0,259.0" stroke="black" stroke-width="2" fill="none" />
<polyline points="187.5,249.5,190.0,257.5,187.0,265.5,180.5,274.0,177.0,284.5,167.5,288.5,161.0,294.5,162.5,307.0,153.5,318.0,136.0,320.0,143.5,316.0,152.0,319.5,160.0,311.5" stroke="black" stroke-width="2" fill="none" />
<polyline points="169.0,313.0,169.0,316.5,175.0,324.0,169.0,328.5,178.5,328.5,186.0,315.0,186.5,313.0,183.0,321.0,176.0,329.5,173.0,343.0,172.0,351.5,169.0,359.5,172.0,366.0" stroke="black" stroke-width="2" fill="none" />
<polyline points="149.5,347.0,136.5,355.0,121.5,363.0,119.0,371.0,120.0,379.0,120.0,387.0,123.0,395.5,129.0,403.5,134.0,411.0,139.0,419.0,147.0,427.5,155.0,435.5,165.5,443.5,177.5,452.0,193.5,460.0" stroke="black" stroke-width="2" fill="none" />
<polyline points="181.0,463.0,173.0,458.0,165.0,453.0,157.0,447.0" stroke="black" stroke-width="2" fill="none" />
<polyline points="157.0,447.0,167.0,455.0,179.5,463.0" stroke="black" stroke-width="2" fill="none" />
<polyline points="242.0,483.5,250.0,484.5,257.5,486.0,265.5,487.0,273.0,487.0" stroke="black" stroke-width="2" fill="none" />
<polyline points="288.0,490.5,296.5,490.5,305.0,490.0,313.0,488.0,321.0,487.0,329.0,487.0,337.5,484.0,345.5,482.0,353.5,481.0,361.0,478.0,369.5,476.0,377.0,472.5,385.5,469.5,393.5,465.5,393.5,466.0,374.5,474.0,359.5,475.0,367.0,473.0,375.0,470.0,383.5,466.0" stroke="black" stroke-width="2" fill="none" />
<polyline points="376.0,458.5,394.0,450.0,409.5,441.5,420.5,433.5,429.5,425.0,437.0,416.5,443.0,408.5,449.5,400.0,442.5,409.0,434.0,419.0,425.5,427.5,417.5,435.0,409.5,441.0,401.0,445.0,393.0,449.0,385.0,453.0,377.0,457.0,369.0,459.0,361.0,463.0,353.0,465.0,345.5,467.5,338.0,469.5,330.5,471.5,322.5,472.5,315.0,473.5,306.5,474.5,298.5,474.5,290.5,475.0,283.0,475.0,275.0,474.0,267.0,474.0,259.0,474.0,250.5,473.0,242.5,470.5,234.5,469.5,226.5,468.0,218.5,467.5,210.5,465.5,203.0,461.5,194.5,459.5,186.5,455.5,178.0,450.5,170.0,446.5,161.5,439.5,154.0,432.5,145.5,425.0,137.5,414.5,130.0,402.5,122.0,389.5" stroke="black" stroke-width="2" fill="none" />
<polyline points="120.0,367.5,128.0,360.5,136.0,357.0,144.0,351.0,152.0,347.5,160.0,344.5,168.0,341.5,176.0,341.0,185.0,337.0,193.0,335.0,201.0,332.0,209.0,332.0,217.5,328.0,225.5,319.5" stroke="black" stroke-width="2" fill="none" />
<polyline points="222.5,322.5,226.5,314.5,229.5,306.5,234.5,298.5,241.0,289.5,245.0,281.5,248.0,273.5,253.0,265.5,253.5,258.0,256.5,250.0,251.5,250.0,243.5,251.5" stroke="black" stroke-width="2" fill="none" />
<polyline points="243.5,256.5,235.0,254.5,227.5,257.5" stroke="black" stroke-width="2" fill="none" />
<polyline points="212.5,263.5,204.0,271.5,199.0,279.5,202.5,287.5,210.5,294.5,215.5,296.5,214.5,295.5,217.0,299.5" stroke="black" stroke-width="2" fill="none" />
<polyline points="230.0,307.0,238.0,295.5" stroke="black" stroke-width="2" fill="none" />
<polyline points="239.0,300.5,240.5,304.5,238.5,312.5,237.5,320.0,232.5,327.5,225.5,335.5,218.5,341.0,227.0,331.0,235.0,324.0" stroke="black" stroke-width="2" fill="none" />
<polyline points="219.5,310.5,211.5,313.5,212.0,321.5,211.0,313.5" stroke="black" stroke-width="2" fill="none" />
<polyline points="199.5,323.0,192.0,326.0" stroke="black" stroke-width="2" fill="none" />
<polyline points="196.5,320.5,188.5,329.5,180.0,333.5,186.0,329.5,192.5,320.0,190.5,316.0,184.5,324.0" stroke="black" stroke-width="2" fill="none" />
<polyline points="189.5,334.0,179.5,342.0,178.0,350.5" stroke="black" stroke-width="2" fill="none" />
<polyline points="173.0,319.5,161.0,320.0,153.0,318.0" stroke="black" stroke-width="2" fill="none" />
<polyline points="161.0,299.0,153.0,300.0,145.0,299.5,136.5,292.0,128.5,293.0,126.0,297.0" stroke="black" stroke-width="2" fill="none" />
<polyline points="130.5,294.5,129.5,302.0,138.5,302.5" stroke="black" stroke-width="2" fill="none" />
<polyline points="123.0,309.5,122.5,306.5,114.5,301.5" stroke="black" stroke-width="2" fill="none" />
<polyline points="114.5,301.0,117.5,309.0,120.5,317.0" stroke="black" stroke-width="2" fill="none" />
<polyline points="125.0,333.0,133.0,329.0,141.0,328.0,142.0,329.0,147.0,337.0,139.5,345.0,130.5,353.0,119.5,358.5,127.5,355.5,135.5,351.0,143.5,343.5" stroke="black" stroke-width="2" fill="none" />
<polyline points="121.0,347.5,119.5,342.0,113.5,343.0" stroke="black" stroke-width="2" fill="none" />
<polyline points="110.5,345.5,118.5,335.0,117.5,336.0,111.5,343.5,112.0,351.5,117.0,359.5,107.0,356.5,111.0,358.5,105.0,360.5" stroke="black" stroke-width="2" fill="none" />
<polyline points="89.5,294.5,85.5,305.0,89.0,303.0,87.0,295.0" stroke="black" stroke-width="2" fill="none" />
<polyline points="86.0,290.5,94.5,291.5,102.5,289.5" stroke="black" stroke-width="2" fill="none" />
<polyline points="77.5,275.5,74.5,283.5,76.0,289.0,70.0,296.5,69.0,304.5,60.5,312.0,51.5,320.0,42.5,328.0,30.5,336.5,19.0,344.5,9.0,352.5,4.0,360.5,6.0,356.5,14.5,349.0,16.5,341.5,24.5,339.5,31.5,337.5,39.5,332.0,47.5,326.0,55.5,320.5,63.5,312.5,71.5,297.5,78.0,285.0,81.0,280.5,89.0,279.0,97.0,272.0,105.0,269.5,112.5,264.5,120.0,259.0,130.0,250.0,138.5,247.0,146.0,241.5,154.5,233.5,162.5,226.0,170.5,218.0,178.5,207.5,186.0,202.5,194.5,200.0,202.5,201.5" stroke="black" stroke-width="2" fill="none" />
<polyline points="192.0,200.5,178.0,208.5,173.5,216.5,164.5,224.5,157.5,232.5,150.0,240.0,139.0,248.0,122.5,258.0,110.5,266.0" stroke="black" stroke-width="2" fill="none" />
<polyline points="84.0,267.0,76.0,262.5" stroke="black" stroke-width="2" fill="none" />
<polyline points="74.0,260.0,83.0,268.0" stroke="black" stroke-width="2" fill="none" />
<polyline points="73.5,260.5,81.5,260.5,85.5,255.5" stroke="black" stroke-width="2" fill="none" />
<polyline points="68.5,248.5,60.5,248.5,58.0,245.5,62.0,237.5,67.0,236.0,63.0,237.0" stroke="black" stroke-width="2" fill="none" />
<polyline points="66.5,238.5,68.5,239.0,76.5,241.0,83.0,241.0" stroke="black" stroke-width="2" fill="none" />
<polyline points="57.0,256.0,49.0,258.0" stroke="black" stroke-width="2" fill="none" />
<polyline points="51.5,254.5,52.5,262.5,51.0,271.0,52.0,279.5" stroke="black" stroke-width="2" fill="none" />
<polyline points="43.5,283.0,36.0,281.0,37.0,285.0,39.5,281.0,38.5,278.0" stroke="black" stroke-width="2" fill="none" />
<polyline points="46.5,295.0,42.5,303.0,44.0,302.5,51.5,301.5,61.5,299.0" stroke="black" stroke-width="2" fill="none" />
<polyline points="59.0,304.5,56.0,312.5,51.0,317.5,59.0,307.5" stroke="black" stroke-width="2" fill="none" />
<polyline points="41.5,315.0,37.5,321.0,37.0,322.0,37.0,314.0" stroke="black" stroke-width="2" fill="none" />
<polyline points="24.0,325.0,16.0,328.0" stroke="black" stroke-width="2" fill="none" />
<polyline points="15.5,338.0,23.5,335.5" stroke="black" stroke-width="2" fill="none" />
<polyline points="4.0,335.5,4.0,327.5" stroke="black" stroke-width="2" fill="none" />
<polyline points="12.0,381.0,10.0,388.0" stroke="black" stroke-width="2" fill="none" />
<polyline points="4.5,449.0,6.0,457.0,5.0,465.0,5.5,472.5,8.5,481.0,8.5,489.0" stroke="black" stroke-width="2" fill="none" />
<polyline points="2.5,499.0,2.5,507.0,12.5,510.0" stroke="black" stroke-width="2" fill="none" />
<polyline points="9.5,507.0,11.5,498.5,12.5,490.5,12.0,482.5,11.5,474.0,10.0,465.5,7.0,457.5" stroke="black" stroke-width="2" fill="none" />
<polyline points="50.0,467.0,58.0,477.0,66.0,485.5,74.0,494.5" stroke="black" stroke-width="2" fill="none" />
<polyline points="71.0,491.0,65.0,482.5,58.5,474.5,52.5,466.5" stroke="black" stroke-width="2" fill="none" />
<polyline points="72.0,451.0,80.0,461.5,88.5,470.5,96.5,477.0,104.5,484.0,112.5,488.5,120.5,494.5,128.0,500.0,136.0,504.0,144.0,508.5,152.0,511.5" stroke="black" stroke-width="2" fill="none" />
<polyline points="138.0,505.0,125.0,497.0,114.0,489.0,102.5,481.0,92.5,473.0,84.0,465.0,78.0,456.5,73.0,449.0" stroke="black" stroke-width="2" fill="none" />
<polyline points="57.0,427.5,49.5,437.5,40.5,447.5,32.5,457.5,24.5,468.5,16.5,479.5,15.0,484.5,19.0,477.0,25.0,469.0,31.0,460.5,37.0,452.5,45.5,444.5,51.5,435.5,59.0,427.0,63.5,419.0" stroke="black" stroke-width="2" fill="none" />
<polyline points="26.0,262.5,22.5,271.5,24.5,263.0,29.5,254.5" stroke="black" stroke-width="2" fill="none" />
<polyline points="10.5,213.0,4.5,206.0,5.5,198.0,9.5,189.5,14.5,181.5,17.5,173.5,22.5,165.5,26.0,157.5,32.0,149.5,34.5,142.0,34.5,134.0,38.5,126.0,38.5,118.0,43.5,115.0,30.0,107.0,30.0,99.0,30.0,91.0,28.5,83.0,26.5,75.5,18.0,68.0,18.0,68.0" stroke="black" stroke-width="2" fill="none" />
<polyline points="18.0,72.0,23.5,80.0,24.5,87.5,25.5,95.5,22.5,96.5,18.5,102.5,18.0,110.5,19.5,115.5,23.0,117.5,34.0,114.5,42.0,119.5" stroke="black" stroke-width="2" fill="none" />
<polyline points="35.0,128.0,40.5,131.0,40.5,139.0" stroke="black" stroke-width="2" fill="none" />
<polyline points="34.0,158.0,31.0,166.0,28.0,174.5,24.0,182.5,21.0,191.0,16.0,199.0,10.0,201.0,16.0,209.0,18.0,202.0,26.0,197.0,34.0,189.5,42.0,183.5,50.0,186.5" stroke="black" stroke-width="2" fill="none" />
<polyline points="28.5,191.0,36.5,180.0,41.0,168.0,37.5,175.5,34.5,183.5,27.0,191.5" stroke="black" stroke-width="2" fill="none" />
<polyline points="27.0,194.0,38.0,186.0,40.5,175.0,44.5,167.0,46.5,159.5,49.0,151.5,48.0,139.0,47.5,134.0,48.0,126.5,46.5,119.5,38.5,111.0,30.0,107.5" stroke="black" stroke-width="2" fill="none" />
<polyline points="22.0,90.5,25.0,108.5,27.0,116.5,26.5,125.0,24.5,133.5,25.5,141.5,26.5,149.5,24.5,152.0" stroke="black" stroke-width="2" fill="none" />
<polyline points="25.5,158.5,18.0,174.5" stroke="black" stroke-width="2" fill="none" />
<polyline points="13.0,184.5,4.5,197.0" stroke="black" stroke-width="2" fill="none" />
<polyline points="2.5,206.5,11.0,201.5,16.0,196.5,23.5,182.5,31.5,164.5" stroke="black" stroke-width="2" fill="none" />
<polyline points="61.5,138.5,69.5,134.0,77.0,132.0,85.0,129.0,93.0,126.0,101.0,122.0,109.5,118.0,117.5,115.0,125.5,110.0,133.5,114.5" stroke="black" stroke-width="2" fill="none" />
<polyline points="130.0,110.0,137.5,118.0,141.5,118.0,149.5,111.0,157.0,112.5" stroke="black" stroke-width="2" fill="none" />
<polyline points="157.5,116.5,155.5,124.5,159.5,125.5" stroke="black" stroke-width="2" fill="none" />
<polyline points="162.5,121.0,152.5,115.5,146.5,121.0,157.5,116.0,159.5,112.0,159.0,104.0" stroke="black" stroke-width="2" fill="none" />
<polyline points="141.0,111.5,132.5,108.5,124.5,105.5" stroke="black" stroke-width="2" fill="none" />
<polyline points="116.0,118.5,119.0,126.5,118.0,135.0,118.0,143.0,121.0,151.0,119.5,159.0,107.0,166.5,106.0,167.5,114.0,160.5,122.0,158.0,130.0,156.0,138.0,155.0,146.0,153.0,154.5,150.0,163.0,149.5,171.0,153.5" stroke="black" stroke-width="2" fill="none" />
<polyline points="167.5,151.0,174.5,159.0,178.0,167.0,179.5,175.0,190.5,183.0" stroke="black" stroke-width="2" fill="none" />
<polyline points="199.0,177.5,206.5,183.5,215.5,197.0,220.5,195.0,226.5,196.5,230.5,198.0" stroke="black" stroke-width="2" fill="none" />
<polyline points="234.5,191.5,227.0,185.5,225.0,173.5,223.0,179.5,213.0,176.5,205.0,168.5" stroke="black" stroke-width="2" fill="none" />
<polyline points="224.0,164.5,224.0,172.5,223.5,180.5,233.5,190.0,235.5,198.0,224.5,201.5,231.5,209.5,233.0,211.5,240.0,206.5,245.0,208.0" stroke="black" stroke-width="2" fill="none" />
<polyline points="261.0,208.0,261.5,216.0,266.5,217.5" stroke="black" stroke-width="2" fill="none" />
<polyline points="267.0,177.0,275.0,181.0,283.0,183.0,291.0,183.0,299.0,183.5,306.5,168.5,303.0,177.0,303.0,183.0,311.0,178.0,319.5,184.0,327.5,199.0,335.5,213.0,343.0,215.5" stroke="black" stroke-width="2" fill="none" />
<polyline points="336.0,216.5,344.0,235.5" stroke="black" stroke-width="2" fill="none" />
<polyline points="353.5,199.5,354.0,191.5,360.0,180.0,366.5,175.0,373.0,167.0,367.0,171.0" stroke="black" stroke-width="2" fill="none" />
<polyline points="345.5,192.5,337.5,188.0" stroke="black" stroke-width="2" fill="none" />
<polyline points="336.5,186.0,336.0,193.0,344.0,196.0,342.5,205.5" stroke="black" stroke-width="2" fill="none" />
<polyline points="342.5,209.0,341.0,201.0,345.0,192.5,337.0,184.0,342.0,183.0,336.0,180.0,328.0,181.0" stroke="black" stroke-width="2" fill="none" />
<polyline points="325.0,180.0,327.5,178.5,327.5,186.5,332.0,194.5" stroke="black" stroke-width="2" fill="none" />
<polyline points="315.0,178.0,322.0,186.0,326.0,194.0,329.0,202.0,332.0,210.0,337.5,219.0,340.5,226.5,343.5,234.5" stroke="black" stroke-width="2" fill="none" />
<polyline points="334.0,310.5,342.0,305.0,349.5,299.5,340.5,306.5,336.0,318.0,333.0,326.0,323.0,333.0,331.0,327.0" stroke="black" stroke-width="2" fill="none" />
<polyline points="311.0,422.5,303.0,424.0,295.5,424.0,287.0,424.0,278.5,424.0,270.5,424.0" stroke="black" stroke-width="2" fill="none" />
<polyline points="202.0,267.0,194.0,266.0,191.5,271.0,202.5,266.0,206.5,259.5,203.5,256.5,205.0,248.5,208.0,246.0,207.0,237.5,212.0,234.5,215.5,226.5,221.5,218.0,216.0,212.0,208.0,214.0" stroke="black" stroke-width="2" fill="none" />
<polyline points="212.5,209.5,208.5,217.5,205.5,225.5,206.5,219.5,214.5,215.0" stroke="black" stroke-width="2" fill="none" />
<polyline points="218.0,243.5,215.5,247.5,221.0,239.5,209.0,245.5" stroke="black" stroke-width="2" fill="none" />
<polyline points="208.5,253.0,216.5,258.0,224.5,259.0,232.5,249.0,240.0,243.0,248.0,235.5" stroke="black" stroke-width="2" fill="none" />
<polyline points="268.0,179.0,262.0,171.0" stroke="black" stroke-width="2" fill="none" />
<polyline points="264.0,154.5,248.0,162.5,241.0,171.5" stroke="black" stroke-width="2" fill="none" />
<polyline points="239.5,167.0,247.5,165.0,255.5,160.0,263.0,155.5,271.0,153.5,278.5,153.5" stroke="black" stroke-width="2" fill="none" />
<polyline points="269.0,145.5,261.0,141.0,253.0,130.0,244.5,125.0" stroke="black" stroke-width="2" fill="none" />
<polyline points="245.0,124.0,248.0,132.0,244.0,132.0" stroke="black" stroke-width="2" fill="none" />
<polyline points="241.0,139.0,233.0,140.5,236.0,139.5" stroke="black" stroke-width="2" fill="none" />
<polyline points="254.5,130.5,259.5,138.5,274.5,145.0,270.5,155.0,282.5,160.5,270.5,168.0,259.5,168.5,257.5,176.5,251.5,184.0,250.5,191.5,250.5,199.5,249.5,207.5,238.0,212.0,224.0,220.5,223.0,221.5,230.5,219.0,238.5,215.0,246.5,214.0" stroke="black" stroke-width="2" fill="none" />
<polyline points="203.5,190.0,195.5,184.0,187.5,182.0,179.5,177.5" stroke="black" stroke-width="2" fill="none" />
<polyline points="167.5,168.5,168.5,169.5,173.0,179.0,178.0,187.0,178.0,194.5,178.5,202.5,185.5,211.5" stroke="black" stroke-width="2" fill="none" />
<polyline points="207.0,197.5,205.0,202.5,209.0,195.0,200.5,187.5" stroke="black" stroke-width="2" fill="none" />
<polyline points="153.5,218.5,145.5,211.5" stroke="black" stroke-width="2" fill="none" />
<polyline points="144.5,209.5,152.5,217.5" stroke="black" stroke-width="2" fill="none" />
<polyline points="137.0,219.5,134.0,214.5,131.5,206.5,129.5,204.5" stroke="black" stroke-width="2" fill="none" />
<polyline points="146.5,174.0,138.5,168.0" stroke="black" stroke-width="2" fill="none" />
<polyline points="126.0,185.0,115.0,186.0,107.5,191.0,99.5,192.0,91.5,182.5" stroke="black" stroke-width="2" fill="none" />
<polyline points="87.5,183.5,93.0,191.5,94.0,199.5,93.0,207.5,93.5,215.0" stroke="black" stroke-width="2" fill="none" />
<polyline points="97.5,190.5,90.5,182.5,90.5,175.0,89.5,176.0" stroke="black" stroke-width="2" fill="none" />
<polyline points="93.0,188.5,85.0,183.0,77.0,185.0,69.0,192.5,68.0,192.5,78.0,184.5" stroke="black" stroke-width="2" fill="none" />
<polyline points="47.0,209.0,39.0,209.0" stroke="black" stroke-width="2" fill="none" />
<polyline points="41.5,210.0,41.0,217.5,41.5,221.5,49.5,221.0" stroke="black" stroke-width="2" fill="none" />
<polyline points="3.5,130.5,3.5,122.5,3.0,115.0" stroke="black" stroke-width="2" fill="none" />
<polyline points="4.0,93.0,2.5,85.0,6.0,84.5,13.0,76.5,13.5,68.0,8.5,67.0" stroke="black" stroke-width="2" fill="none" />
<polyline points="16.5,75.5,19.0,83.5,17.5,91.5,17.0,99.0" stroke="black" stroke-width="2" fill="none" />
<polyline points="7.5,93.5,9.5,86.0,7.0,74.0,9.5,66.0,1.0,79.0" stroke="black" stroke-width="2" fill="none" />
<polyline points="79.5,44.0,86.5,52.0,96.0,60.0" stroke="black" stroke-width="2" fill="none" />
<polyline points="101.0,58.0,93.0,51.0,85.0,38.0" stroke="black" stroke-width="2" fill="none" />
<polyline points="84.5,38.0,90.0,46.0,93.0,53.5,100.0,62.0,111.0,65.0,117.5,73.0,126.5,78.5,134.5,72.0" stroke="black" stroke-width="2" fill="none" />
<polyline points="136.5,68.5,125.5,76.5" stroke="black" stroke-width="2" fill="none" />
<polyline points="122.5,80.0,117.5,72.0,114.0,68.0,109.0,60.0" stroke="black" stroke-width="2" fill="none" />
<polyline points="99.5,60.0,93.5,49.0,88.5,52.0,80.5,44.0" stroke="black" stroke-width="2" fill="none" />
<polyline points="164.0,79.5,158.0,87.5,152.0,95.5,147.0,103.0,155.0,93.5,163.5,81.5" stroke="black" stroke-width="2" fill="none" />
<polyline points="167.0,73.5,159.0,81.5,154.0,90.0,149.0,97.5,144.0,105.0,151.0,110.0,145.5,118.0,144.5,122.5,153.0,122.0,160.5,126.0" stroke="black" stroke-width="2" fill="none" />
<polyline points="187.5,126.5,196.0,117.5,199.0,109.5,206.5,106.5,210.0,115.5" stroke="black" stroke-width="2" fill="none" />
<polyline points="203.0,100.5,197.0,108.5,202.0,102.5,209.0,92.5" stroke="black" stroke-width="2" fill="none" />
<polyline points="231.5,108.5,239.0,109.5,247.0,110.5,255.0,116.0,264.0,123.5" stroke="black" stroke-width="2" fill="none" />
<polyline points="267.0,111.0,259.5,99.0" stroke="black" stroke-width="2" fill="none" />
<polyline points="270.0,98.5,278.0,104.5,282.0,113.0,287.0,109.5,294.0,120.5,299.5,127.5,307.5,136.0,316.5,137.5,324.5,139.5,332.0,151.0,340.0,168.5" stroke="black" stroke-width="2" fill="none" />
<polyline points="353.0,206.5,353.0,206.0,351.0,198.0,350.0,193.0,347.5,185.5,345.5,177.5,341.0,169.5,336.5,161.0,333.0,153.5,330.0,145.5,331.5,140.5,330.5,132.5,329.5,124.5,327.5,117.0,325.5,108.5,324.5,100.5,322.5,98.0,314.5,90.0" stroke="black" stroke-width="2" fill="none" />
<polyline points="314.5,90.0,320.5,98.0" stroke="black" stroke-width="2" fill="none" />
<polyline points="341.0,107.0,341.0,115.0,341.5,123.5,342.5,131.0" stroke="black" stroke-width="2" fill="none" />
<polyline points="318.5,146.0,310.5,137.0" stroke="black" stroke-width="2" fill="none" />
<polyline points="323.0,151.5,317.5,149.5,309.5,147.5,305.5,149.5,297.5,135.5,289.5,128.0,281.5,124.5,281.0,125.5,273.0,117.5,267.0,109.5,261.0,101.5,257.5,94.0,253.5,86.0,246.5,78.0,242.0,67.0,240.0,60.5" stroke="black" stroke-width="2" fill="none" />
<polyline points="237.0,60.0,245.0,54.0,248.5,67.0" stroke="black" stroke-width="2" fill="none" />
<polyline points="252.0,60.5,244.5,54.0" stroke="black" stroke-width="2" fill="none" />
<polyline points="247.5,42.5,258.5,50.5,272.0,58.5,283.0,66.5,294.5,74.5,297.5,82.0,299.5,90.0,300.5,98.5,300.5,106.5,302.5,114.0" stroke="black" stroke-width="2" fill="none" />
<polyline points="291.5,128.0,301.0,135.5,303.0,143.5,313.5,151.5,316.5,158.5,324.5,161.5,332.5,173.5" stroke="black" stroke-width="2" fill="none" />
<polyline points="281.5,105.0,273.5,101.0" stroke="black" stroke-width="2" fill="none" />
<polyline points="261.0,85.5,253.0,78.5" stroke="black" stroke-width="2" fill="none" />
<polyline points="253.0,79.5,261.5,87.5,272.5,98.5,282.5,106.0,289.0,117.0,295.0,125.0,302.5,134.0,315.5,137.5,316.5,144.5,322.5,152.5,326.0,165.5,330.0,173.5,337.5,180.5,330.5,185.5,334.5,193.5,346.0,202.0,351.0,210.0" stroke="black" stroke-width="2" fill="none" />
<polyline points="439.5,239.0,447.5,243.0,455.5,247.0,464.0,250.0,472.5,255.5,480.5,260.5,489.0,265.0,497.0,270.0,504.5,271.5" stroke="black" stroke-width="2" fill="none" />
<polyline points="508.0,274.5,507.0,278.0,504.0,276.0,493.5,268.5,479.0,260.0,465.0,252.0,448.5,244.0,440.5,236.0,439.5,228.0,440.5,220.0,439.5,212.0,440.5,203.5,443.5,195.5,439.5,191.5,443.5,183.5,444.5,179.5,445.0,171.0,446.0,162.5,447.0,154.5,447.0,146.5,446.5,139.0,447.0,131.0,447.5,123.0,447.5,115.0,435.0,107.0,435.0,99.5,429.0,91.5,422.5,84.0,417.5,76.5,412.0,73.0,409.0,65.0,405.0,58.5,398.0,50.5,388.5,44.5,380.5,44.5,372.5,45.0,364.5,34.0,356.5,29.0,349.0,27.0" stroke="black" stroke-width="2" fill="none" />
<polyline points="361.0,34.5,370.5,42.5" stroke="black" stroke-width="2" fill="none" />
<polyline points="390.0,48.0,397.5,49.0,405.5,56.5" stroke="black" stroke-width="2" fill="none" />
<polyline points="415.5,70.0,423.5,81.5,429.5,90.5" stroke="black" stroke-width="2" fill="none" />
<polyline points="435.5,109.0,444.0,109.5,453.0,121.5,458.0,130.0,459.5,138.0,461.5,146.0,464.0,154.0,467.0,162.0,470.0,170.0,469.0,178.0,469.0,185.5,468.5,193.5,466.5,201.5,465.5,210.0,464.5,218.5,453.5,223.5,461.0,221.0,473.0,215.0,481.0,214.0" stroke="black" stroke-width="2" fill="none" />
<polyline points="479.5,206.0,475.5,198.0,474.5,189.5,472.5,185.5" stroke="black" stroke-width="2" fill="none" />
<polyline points="470.0,196.5,470.0,204.5,472.5,218.5,479.0,220.5,493.0,219.5" stroke="black" stroke-width="2" fill="none" />
<polyline points="485.5,221.0,486.0,229.5,488.0,237.5,499.5,253.5" stroke="black" stroke-width="2" fill="none" />
<polyline points="440.5,174.5,440.5,163.5,442.0,155.5" stroke="black" stroke-width="2" fill="none" />
<polyline points="414.5,133.5,405.0,141.5,410.0,139.5" stroke="black" stroke-width="2" fill="none" />
<polyline points="450.5,89.0,452.5,97.5,455.5,105.0,453.5,113.0,458.0,113.0,460.0,121.0,463.5,128.5,464.5,136.5,468.5,144.5,469.5,152.5,470.5,160.5,474.5,170.5,476.0,178.5,479.5,186.5,482.5,195.0,485.0,203.5,488.0,211.0,492.5,218.5,495.0,225.0,497.0,233.5,495.5,241.5,500.5,249.5,505.0,257.5,506.0,266.0" stroke="black" stroke-width="2" fill="none" />
<polyline points="445.0,414.5,439.5,422.5,433.5,430.0,427.5,438.0,417.5,446.5,406.5,454.5,407.5,454.0,415.5,449.5,423.5,443.5,431.5,435.5,439.0,425.0" stroke="black" stroke-width="2" fill="none" />
<polyline points="470.5,489.5,463.0,496.0,454.5,499.5,446.5,504.5,439.0,508.5,431.5,512.0,442.5,506.0,459.0,497.5,470.5,489.5,479.5,489.5,488.5,481.5,495.0,473.5" stroke="black" stroke-width="2" fill="none" />
<polyline points="511.0,500.0,500.5,508.0,494.5,512.0,502.5,507.0,511.0,501.0" stroke="black" stroke-width="2" fill="none" />
<polyline points="491.5,479.0,483.0,487.0,475.0,493.0,467.5,498.5,459.0,500.5,451.0,505.0,443.0,509.0,436.5,511.5,453.5,503.5,467.0,495.5" stroke="black" stroke-width="2" fill="none" />
<polyline points="275.0,111.5,274.5,98.0,267.0,94.0,259.5,98.5,251.0,85.0,243.0,76.0" stroke="black" stroke-width="2" fill="none" />
<polyline points="243.5,83.0,251.5,91.5" stroke="black" stroke-width="2" fill="none" />
<polyline points="247.0,110.5,258.5,119.5,266.5,127.5,276.5,122.5,285.0,123.0,293.5,126.0,301.5,132.0" stroke="black" stroke-width="2" fill="none" />
<polyline points="272.0,91.0,264.0,82.0,249.5,70.0,243.5,62.0,235.5,64.0" stroke="black" stroke-width="2" fill="none" />
<polyline points="216.0,61.5,213.0,62.5,211.5,71.0,209.5,79.0,207.5,87.5,202.0,95.5,197.0,104.0,190.5,112.0,181.5,120.0,177.0,127.5,165.0,128.5,168.0,123.5,170.5,126.5,179.5,121.0,187.5,114.0,195.5,105.5,203.5,91.5,214.0,80.5,214.0,70.5,212.0,79.0" stroke="black" stroke-width="2" fill="none" />
<polyline points="250.5,42.0,258.5,48.0,266.5,53.5,274.5,60.0,283.0,64.5,291.0,70.0" stroke="black" stroke-width="2" fill="none" />
<polyline points="287.0,80.5,286.0,88.5,294.0,96.0,289.0,91.0,293.5,94.0" stroke="black" stroke-width="2" fill="none" />
<polyline points="291.0,82.5,291.5,90.5,289.5,82.5" stroke="black" stroke-width="2" fill="none" />
<polyline points="305.0,26.5,308.0,19.0,314.5,11.0" stroke="black" stroke-width="2" fill="none" />
<polyline points="292.0,5.0,289.0,13.0,278.0,20.5,267.0,30.5,251.0,38.0,230.0,47.0,218.5,55.5,220.0,63.5,221.0,65.5" stroke="black" stroke-width="2" fill="none" />
<polyline points="426.5,10.5,434.5,5.0,443.0,5.0,451.0,4.0,459.5,4.0,467.5,4.0,475.5,4.0,483.5,4.5,491.5,4.5,499.0,3.5,507.0,3.5" stroke="black" stroke-width="2" fill="none" />
<polyline points="461.0,62.5,453.0,63.0,445.0,62.0" stroke="black" stroke-width="2" fill="none" />
<polyline points="446.5,66.5,446.5,74.5,446.0,82.5,447.0,90.5" stroke="black" stroke-width="2" fill="none" />
<polyline points="440.0,64.0,448.5,57.0,456.5,58.0,466.5,61.0" stroke="black" stroke-width="2" fill="none" />
<polyline points="463.0,55.0,462.0,60.0,454.0,56.0,446.0,51.0,438.0,48.5" stroke="black" stroke-width="2" fill="none" />
<polyline points="451.0,62.5,468.0,68.0,471.0,71.0,471.0,71.0" stroke="black" stroke-width="2" fill="none" />
<polyline points="443.0,81.0,441.0,73.5,441.0,65.5,436.5,61.5,434.5,53.5,434.5,45.5,433.5,37.0,432.5,28.5" stroke="black" stroke-width="2" fill="none" />
<polyline points="429.5,30.5,429.5,22.0,429.5,14.0,431.0,6.0" stroke="black" stroke-width="2" fill="none" />
</svg>